<svg width="199" height="13" viewBox="0 0 199 13" fill="none" xmlns="http://www.w3.org/2000/svg">
<path d="M4.07955 12.1591C3.32197 12.1591 2.64394 12.017 2.04545 11.733C1.44697 11.4451 0.971591 11.0511 0.619318 10.5511C0.270833 10.0511 0.0852273 9.47917 0.0625 8.83523H2.10795C2.14583 9.3125 2.35227 9.70265 2.72727 10.0057C3.10227 10.3049 3.55303 10.4545 4.07955 10.4545C4.49242 10.4545 4.85985 10.3598 5.18182 10.1705C5.50379 9.98106 5.75758 9.7178 5.94318 9.38068C6.12879 9.04356 6.2197 8.65909 6.21591 8.22727C6.2197 7.78788 6.12689 7.39773 5.9375 7.05682C5.74811 6.71591 5.48864 6.44886 5.15909 6.25568C4.82955 6.05871 4.45076 5.96023 4.02273 5.96023C3.67424 5.95644 3.33144 6.02083 2.99432 6.15341C2.6572 6.28598 2.39015 6.46023 2.19318 6.67614L0.289773 6.36364L0.897727 0.363636H7.64773V2.125H2.64205L2.30682 5.21023H2.375C2.59091 4.95644 2.89583 4.74621 3.28977 4.57955C3.68371 4.40909 4.11553 4.32386 4.58523 4.32386C5.28977 4.32386 5.91856 4.49053 6.47159 4.82386C7.02462 5.15341 7.46023 5.60795 7.77841 6.1875C8.09659 6.76705 8.25568 7.42992 8.25568 8.17614C8.25568 8.94508 8.07765 9.63068 7.72159 10.233C7.36932 10.8314 6.87879 11.303 6.25 11.6477C5.625 11.9886 4.90152 12.1591 4.07955 12.1591ZM11.0582 12.125C10.7135 12.125 10.4181 12.0038 10.1719 11.7614C9.92566 11.5189 9.80445 11.2235 9.80824 10.875C9.80445 10.5341 9.92566 10.2424 10.1719 10C10.4181 9.75758 10.7135 9.63636 11.0582 9.63636C11.3916 9.63636 11.6813 9.75758 11.9276 10C12.1776 10.2424 12.3045 10.5341 12.3082 10.875C12.3045 11.1061 12.2438 11.3163 12.1264 11.5057C12.0128 11.6951 11.8613 11.8466 11.6719 11.9602C11.4863 12.0701 11.2817 12.125 11.0582 12.125ZM18.2571 12.2216C17.3215 12.2216 16.5185 11.9848 15.848 11.5114C15.1813 11.0341 14.6681 10.3466 14.3082 9.44886C13.9522 8.54735 13.7741 7.46212 13.7741 6.19318C13.7779 4.92424 13.9579 3.8447 14.3139 2.95455C14.6738 2.06061 15.187 1.37879 15.8537 0.909091C16.5241 0.439394 17.3253 0.204545 18.2571 0.204545C19.1889 0.204545 19.9901 0.439394 20.6605 0.909091C21.331 1.37879 21.8442 2.06061 22.2003 2.95455C22.5601 3.84848 22.7401 4.92803 22.7401 6.19318C22.7401 7.46591 22.5601 8.55303 22.2003 9.45455C21.8442 10.3523 21.331 11.0379 20.6605 11.5114C19.9938 11.9848 19.1927 12.2216 18.2571 12.2216ZM18.2571 10.4432C18.9844 10.4432 19.5582 10.0852 19.9787 9.36932C20.4029 8.64962 20.6151 7.59091 20.6151 6.19318C20.6151 5.26894 20.5185 4.49242 20.3253 3.86364C20.1321 3.23485 19.8594 2.76136 19.5071 2.44318C19.1548 2.12121 18.7382 1.96023 18.2571 1.96023C17.5336 1.96023 16.9616 2.32008 16.5412 3.03977C16.1207 3.75568 15.9086 4.80682 15.9048 6.19318C15.901 7.12121 15.9938 7.90151 16.1832 8.53409C16.3764 9.16667 16.6491 9.64394 17.0014 9.96591C17.3537 10.2841 17.7723 10.4432 18.2571 10.4432ZM110.376 0.363636V12H108.268V2.41477H108.2L105.479 4.15341V2.22159L108.371 0.363636H110.376ZM113.121 9.84091V8.16477L118.058 0.363636H119.456V2.75H118.604L115.28 8.01705V8.10795H122.172V9.84091H113.121ZM118.672 12V9.32955L118.695 8.57955V0.363636H120.683V12H118.672ZM128.033 12.1591C127.275 12.1591 126.597 12.017 125.999 11.733C125.4 11.4451 124.925 11.0511 124.572 10.5511C124.224 10.0511 124.038 9.47917 124.016 8.83523H126.061C126.099 9.3125 126.305 9.70265 126.68 10.0057C127.055 10.3049 127.506 10.4545 128.033 10.4545C128.446 10.4545 128.813 10.3598 129.135 10.1705C129.457 9.98106 129.711 9.7178 129.896 9.38068C130.082 9.04356 130.173 8.65909 130.169 8.22727C130.173 7.78788 130.08 7.39773 129.891 7.05682C129.701 6.71591 129.442 6.44886 129.112 6.25568C128.783 6.05871 128.404 5.96023 127.976 5.96023C127.627 5.95644 127.285 6.02083 126.947 6.15341C126.61 6.28598 126.343 6.46023 126.146 6.67614L124.243 6.36364L124.851 0.363636H131.601V2.125H126.595L126.26 5.21023H126.328C126.544 4.95644 126.849 4.74621 127.243 4.57955C127.637 4.40909 128.069 4.32386 128.538 4.32386C129.243 4.32386 129.872 4.49053 130.425 4.82386C130.978 5.15341 131.413 5.60795 131.732 6.1875C132.05 6.76705 132.209 7.42992 132.209 8.17614C132.209 8.94508 132.031 9.63068 131.675 10.233C131.322 10.8314 130.832 11.303 130.203 11.6477C129.578 11.9886 128.855 12.1591 128.033 12.1591Z" fill="#252432"/>
<path d="M28.9716 12V0.363636H33.0398C33.8504 0.363636 34.5189 0.503788 35.0455 0.784091C35.572 1.06061 35.964 1.43371 36.2216 1.90341C36.4792 2.36932 36.608 2.88636 36.608 3.45455C36.608 3.95455 36.5189 4.36742 36.3409 4.69318C36.1667 5.01894 35.9356 5.27652 35.6477 5.46591C35.3636 5.6553 35.0549 5.79545 34.7216 5.88636V6C35.0777 6.02273 35.4356 6.14773 35.7955 6.375C36.1553 6.60227 36.4564 6.92803 36.6989 7.35227C36.9413 7.77651 37.0625 8.29545 37.0625 8.90909C37.0625 9.49242 36.9299 10.017 36.6648 10.483C36.3996 10.9489 35.9811 11.3182 35.4091 11.5909C34.8371 11.8636 34.0928 12 33.1761 12H28.9716ZM30.3807 10.75H33.1761C34.0966 10.75 34.75 10.572 35.1364 10.2159C35.5265 9.85606 35.7216 9.42045 35.7216 8.90909C35.7216 8.51515 35.6212 8.15152 35.4205 7.81818C35.2197 7.48106 34.9337 7.21212 34.5625 7.01136C34.1913 6.80682 33.7519 6.70455 33.2443 6.70455H30.3807V10.75ZM30.3807 5.47727H32.9943C33.4186 5.47727 33.8011 5.39394 34.142 5.22727C34.4867 5.06061 34.7595 4.82576 34.9602 4.52273C35.1648 4.2197 35.267 3.86364 35.267 3.45455C35.267 2.94318 35.089 2.50947 34.733 2.15341C34.3769 1.79356 33.8125 1.61364 33.0398 1.61364H30.3807V5.47727ZM41.7642 12.2045C41.2112 12.2045 40.7093 12.1004 40.2585 11.892C39.8078 11.6799 39.4498 11.375 39.1847 10.9773C38.9195 10.5758 38.7869 10.0909 38.7869 9.52273C38.7869 9.02273 38.8854 8.61742 39.0824 8.30682C39.2794 7.99242 39.5426 7.74621 39.8722 7.56818C40.2017 7.39015 40.5653 7.25758 40.9631 7.17045C41.3646 7.07955 41.768 7.00758 42.1733 6.95455C42.7036 6.88636 43.1335 6.83523 43.4631 6.80114C43.7964 6.76326 44.0388 6.70076 44.1903 6.61364C44.3456 6.52652 44.4233 6.375 44.4233 6.15909V6.11364C44.4233 5.55303 44.2699 5.11742 43.9631 4.80682C43.66 4.49621 43.1998 4.34091 42.5824 4.34091C41.9422 4.34091 41.4403 4.48106 41.0767 4.76136C40.7131 5.04167 40.4574 5.34091 40.3097 5.65909L39.0369 5.20455C39.2642 4.67424 39.5672 4.26136 39.946 3.96591C40.3286 3.66667 40.7453 3.45833 41.196 3.34091C41.6506 3.2197 42.0975 3.15909 42.5369 3.15909C42.8172 3.15909 43.1392 3.19318 43.5028 3.26136C43.8703 3.32576 44.2244 3.46023 44.5653 3.66477C44.91 3.86932 45.196 4.17803 45.4233 4.59091C45.6506 5.00379 45.7642 5.55682 45.7642 6.25V12H44.4233V10.8182H44.3551C44.2642 11.0076 44.1127 11.2102 43.9006 11.4261C43.6884 11.642 43.4063 11.8258 43.054 11.9773C42.7017 12.1288 42.2718 12.2045 41.7642 12.2045ZM41.9688 11C42.4991 11 42.946 10.8958 43.3097 10.6875C43.6771 10.4792 43.9536 10.2102 44.1392 9.88068C44.3286 9.55114 44.4233 9.20455 44.4233 8.84091V7.61364C44.3665 7.68182 44.2415 7.74432 44.0483 7.80114C43.8589 7.85417 43.6392 7.90151 43.3892 7.94318C43.143 7.98106 42.9025 8.01515 42.6676 8.04545C42.4366 8.07197 42.2491 8.0947 42.1051 8.11364C41.7566 8.15909 41.4309 8.23295 41.1278 8.33523C40.8286 8.43371 40.5862 8.58333 40.4006 8.78409C40.2188 8.98106 40.1278 9.25 40.1278 9.59091C40.1278 10.0568 40.3002 10.4091 40.6449 10.6477C40.9934 10.8826 41.4347 11 41.9688 11ZM54.3935 5.22727L53.1889 5.56818C53.1132 5.36742 53.0014 5.17235 52.8537 4.98295C52.7098 4.78977 52.5128 4.63068 52.2628 4.50568C52.0128 4.38068 51.6927 4.31818 51.3026 4.31818C50.7685 4.31818 50.3234 4.44129 49.9673 4.6875C49.6151 4.92992 49.4389 5.23864 49.4389 5.61364C49.4389 5.94697 49.5601 6.21023 49.8026 6.40341C50.045 6.59659 50.4238 6.75758 50.9389 6.88636L52.2344 7.20455C53.0147 7.39394 53.5961 7.68371 53.9787 8.07386C54.3613 8.46023 54.5526 8.95833 54.5526 9.56818C54.5526 10.0682 54.4086 10.5152 54.1207 10.9091C53.8366 11.303 53.4389 11.6136 52.9276 11.8409C52.4162 12.0682 51.8215 12.1818 51.1435 12.1818C50.2533 12.1818 49.5166 11.9886 48.9332 11.6023C48.3499 11.2159 47.9806 10.6515 47.8253 9.90909L49.098 9.59091C49.2192 10.0606 49.4484 10.4129 49.7855 10.6477C50.1264 10.8826 50.5715 11 51.1207 11C51.7457 11 52.242 10.8674 52.6094 10.6023C52.9806 10.3333 53.1662 10.0114 53.1662 9.63636C53.1662 9.33333 53.0601 9.07955 52.848 8.875C52.6359 8.66667 52.3101 8.51136 51.8707 8.40909L50.4162 8.06818C49.617 7.87879 49.0298 7.58523 48.6548 7.1875C48.2836 6.78598 48.098 6.28409 48.098 5.68182C48.098 5.18939 48.2363 4.75379 48.5128 4.375C48.7931 3.99621 49.1738 3.69886 49.6548 3.48295C50.1397 3.26705 50.6889 3.15909 51.3026 3.15909C52.1662 3.15909 52.8442 3.34848 53.3366 3.72727C53.8329 4.10606 54.1851 4.60606 54.3935 5.22727ZM60.2301 12.1818C59.3892 12.1818 58.6638 11.9962 58.054 11.625C57.4479 11.25 56.9801 10.7273 56.6506 10.0568C56.3248 9.38258 56.1619 8.59848 56.1619 7.70455C56.1619 6.81061 56.3248 6.02273 56.6506 5.34091C56.9801 4.6553 57.4384 4.12121 58.0256 3.73864C58.6165 3.35227 59.3059 3.15909 60.0938 3.15909C60.5483 3.15909 60.9972 3.23485 61.4403 3.38636C61.8835 3.53788 62.2869 3.78409 62.6506 4.125C63.0142 4.46212 63.304 4.90909 63.5199 5.46591C63.7358 6.02273 63.8438 6.70833 63.8438 7.52273V8.09091H57.1165V6.93182H62.4801C62.4801 6.43939 62.3816 6 62.1847 5.61364C61.9915 5.22727 61.715 4.92235 61.3551 4.69886C60.9991 4.47538 60.5786 4.36364 60.0938 4.36364C59.5597 4.36364 59.0975 4.49621 58.7074 4.76136C58.321 5.02273 58.0237 5.36364 57.8153 5.78409C57.607 6.20455 57.5028 6.6553 57.5028 7.13636V7.90909C57.5028 8.56818 57.6165 9.12689 57.8438 9.58523C58.0748 10.0398 58.3949 10.3864 58.804 10.625C59.2131 10.8598 59.6884 10.9773 60.2301 10.9773C60.5824 10.9773 60.9006 10.928 61.1847 10.8295C61.4725 10.7273 61.7206 10.5758 61.929 10.375C62.1373 10.1705 62.2983 9.91667 62.4119 9.61364L63.7074 9.97727C63.571 10.4167 63.3419 10.803 63.0199 11.1364C62.6979 11.4659 62.3002 11.7235 61.8267 11.9091C61.3532 12.0909 60.821 12.1818 60.2301 12.1818ZM69.179 12.1818C68.4517 12.1818 67.8097 11.9981 67.2528 11.6307C66.696 11.2595 66.2604 10.7367 65.946 10.0625C65.6316 9.38447 65.4744 8.58333 65.4744 7.65909C65.4744 6.74242 65.6316 5.94697 65.946 5.27273C66.2604 4.59848 66.6979 4.07765 67.2585 3.71023C67.8191 3.3428 68.4669 3.15909 69.2017 3.15909C69.7699 3.15909 70.2188 3.25379 70.5483 3.44318C70.8816 3.62879 71.1354 3.84091 71.3097 4.07955C71.4877 4.31439 71.6259 4.50758 71.7244 4.65909H71.8381V0.363636H73.179V12H71.8835V10.6591H71.7244C71.6259 10.8182 71.4858 11.0189 71.304 11.2614C71.1222 11.5 70.8627 11.714 70.5256 11.9034C70.1884 12.089 69.7396 12.1818 69.179 12.1818ZM69.3608 10.9773C69.8987 10.9773 70.3532 10.8371 70.7244 10.5568C71.0956 10.2727 71.3778 9.88068 71.571 9.38068C71.7642 8.87689 71.8608 8.29545 71.8608 7.63636C71.8608 6.98485 71.7661 6.41477 71.5767 5.92614C71.3873 5.43371 71.107 5.05114 70.7358 4.77841C70.3646 4.50189 69.9063 4.36364 69.3608 4.36364C68.7926 4.36364 68.3191 4.50947 67.9403 4.80114C67.5653 5.08902 67.2831 5.48106 67.0938 5.97727C66.9081 6.4697 66.8153 7.02273 66.8153 7.63636C66.8153 8.25758 66.91 8.82197 67.0994 9.32955C67.2926 9.83333 67.5767 10.2348 67.9517 10.5341C68.3305 10.8295 68.8002 10.9773 69.3608 10.9773ZM90.321 6.18182C90.321 7.40909 90.0994 8.4697 89.6562 9.36364C89.2131 10.2576 88.6051 10.947 87.8324 11.4318C87.0597 11.9167 86.1771 12.1591 85.1847 12.1591C84.1922 12.1591 83.3097 11.9167 82.5369 11.4318C81.7642 10.947 81.1563 10.2576 80.7131 9.36364C80.2699 8.4697 80.0483 7.40909 80.0483 6.18182C80.0483 4.95455 80.2699 3.89394 80.7131 3C81.1563 2.10606 81.7642 1.41667 82.5369 0.931818C83.3097 0.446969 84.1922 0.204545 85.1847 0.204545C86.1771 0.204545 87.0597 0.446969 87.8324 0.931818C88.6051 1.41667 89.2131 2.10606 89.6562 3C90.0994 3.89394 90.321 4.95455 90.321 6.18182ZM88.9574 6.18182C88.9574 5.17424 88.7888 4.32386 88.4517 3.63068C88.1184 2.9375 87.6657 2.41288 87.0938 2.05682C86.5256 1.70076 85.8892 1.52273 85.1847 1.52273C84.4801 1.52273 83.8419 1.70076 83.2699 2.05682C82.7017 2.41288 82.2491 2.9375 81.9119 3.63068C81.5786 4.32386 81.4119 5.17424 81.4119 6.18182C81.4119 7.18939 81.5786 8.03977 81.9119 8.73295C82.2491 9.42614 82.7017 9.95076 83.2699 10.3068C83.8419 10.6629 84.4801 10.8409 85.1847 10.8409C85.8892 10.8409 86.5256 10.6629 87.0938 10.3068C87.6657 9.95076 88.1184 9.42614 88.4517 8.73295C88.7888 8.03977 88.9574 7.18939 88.9574 6.18182ZM93.8494 6.75V12H92.5085V3.27273H93.804V4.63636H93.9176C94.1222 4.19318 94.4328 3.83712 94.8494 3.56818C95.2661 3.29545 95.804 3.15909 96.4631 3.15909C97.054 3.15909 97.571 3.2803 98.0142 3.52273C98.4574 3.76136 98.8021 4.125 99.0483 4.61364C99.2945 5.09848 99.4176 5.71212 99.4176 6.45455V12H98.0767V6.54545C98.0767 5.85985 97.8987 5.32576 97.5426 4.94318C97.1866 4.55682 96.6979 4.36364 96.0767 4.36364C95.6487 4.36364 95.2661 4.45644 94.929 4.64205C94.5956 4.82765 94.3324 5.09848 94.1392 5.45455C93.946 5.81061 93.8494 6.24242 93.8494 6.75ZM138.456 12V0.363636H142.388C143.297 0.363636 144.043 0.518939 144.626 0.829545C145.21 1.13636 145.642 1.55871 145.922 2.09659C146.202 2.63447 146.342 3.24621 146.342 3.93182C146.342 4.61742 146.202 5.22538 145.922 5.75568C145.642 6.28598 145.212 6.70265 144.632 7.00568C144.053 7.30492 143.312 7.45455 142.411 7.45455H139.229V6.18182H142.365C142.986 6.18182 143.486 6.09091 143.865 5.90909C144.248 5.72727 144.524 5.4697 144.695 5.13636C144.869 4.79924 144.956 4.39773 144.956 3.93182C144.956 3.46591 144.869 3.05871 144.695 2.71023C144.52 2.36174 144.242 2.0928 143.859 1.90341C143.477 1.71023 142.971 1.61364 142.342 1.61364H139.865V12H138.456ZM143.933 6.77273L146.797 12H145.161L142.342 6.77273H143.933ZM152.074 12.1818C151.233 12.1818 150.508 11.9962 149.898 11.625C149.292 11.25 148.824 10.7273 148.494 10.0568C148.169 9.38258 148.006 8.59848 148.006 7.70455C148.006 6.81061 148.169 6.02273 148.494 5.34091C148.824 4.6553 149.282 4.12121 149.869 3.73864C150.46 3.35227 151.15 3.15909 151.938 3.15909C152.392 3.15909 152.841 3.23485 153.284 3.38636C153.727 3.53788 154.131 3.78409 154.494 4.125C154.858 4.46212 155.148 4.90909 155.364 5.46591C155.58 6.02273 155.688 6.70833 155.688 7.52273V8.09091H148.96V6.93182H154.324C154.324 6.43939 154.225 6 154.028 5.61364C153.835 5.22727 153.559 4.92235 153.199 4.69886C152.843 4.47538 152.422 4.36364 151.938 4.36364C151.403 4.36364 150.941 4.49621 150.551 4.76136C150.165 5.02273 149.867 5.36364 149.659 5.78409C149.451 6.20455 149.347 6.6553 149.347 7.13636V7.90909C149.347 8.56818 149.46 9.12689 149.688 9.58523C149.919 10.0398 150.239 10.3864 150.648 10.625C151.057 10.8598 151.532 10.9773 152.074 10.9773C152.426 10.9773 152.744 10.928 153.028 10.8295C153.316 10.7273 153.564 10.5758 153.773 10.375C153.981 10.1705 154.142 9.91667 154.256 9.61364L155.551 9.97727C155.415 10.4167 155.186 10.803 154.864 11.1364C154.542 11.4659 154.144 11.7235 153.67 11.9091C153.197 12.0909 152.665 12.1818 152.074 12.1818ZM164.598 3.27273L161.371 12H160.007L156.78 3.27273H158.234L160.643 10.2273H160.734L163.143 3.27273H164.598ZM166.368 12V3.27273H167.709V12H166.368ZM167.05 1.81818C166.788 1.81818 166.563 1.72917 166.374 1.55114C166.188 1.37311 166.095 1.15909 166.095 0.909091C166.095 0.659091 166.188 0.445076 166.374 0.267045C166.563 0.089015 166.788 0 167.05 0C167.311 0 167.535 0.089015 167.72 0.267045C167.91 0.445076 168.004 0.659091 168.004 0.909091C168.004 1.15909 167.91 1.37311 167.72 1.55114C167.535 1.72917 167.311 1.81818 167.05 1.81818ZM173.824 12.1818C172.983 12.1818 172.258 11.9962 171.648 11.625C171.042 11.25 170.574 10.7273 170.244 10.0568C169.919 9.38258 169.756 8.59848 169.756 7.70455C169.756 6.81061 169.919 6.02273 170.244 5.34091C170.574 4.6553 171.032 4.12121 171.619 3.73864C172.21 3.35227 172.9 3.15909 173.688 3.15909C174.142 3.15909 174.591 3.23485 175.034 3.38636C175.477 3.53788 175.881 3.78409 176.244 4.125C176.608 4.46212 176.898 4.90909 177.114 5.46591C177.33 6.02273 177.438 6.70833 177.438 7.52273V8.09091H170.71V6.93182H176.074C176.074 6.43939 175.975 6 175.778 5.61364C175.585 5.22727 175.309 4.92235 174.949 4.69886C174.593 4.47538 174.172 4.36364 173.688 4.36364C173.153 4.36364 172.691 4.49621 172.301 4.76136C171.915 5.02273 171.617 5.36364 171.409 5.78409C171.201 6.20455 171.097 6.6553 171.097 7.13636V7.90909C171.097 8.56818 171.21 9.12689 171.438 9.58523C171.669 10.0398 171.989 10.3864 172.398 10.625C172.807 10.8598 173.282 10.9773 173.824 10.9773C174.176 10.9773 174.494 10.928 174.778 10.8295C175.066 10.7273 175.314 10.5758 175.523 10.375C175.731 10.1705 175.892 9.91667 176.006 9.61364L177.301 9.97727C177.165 10.4167 176.936 10.803 176.614 11.1364C176.292 11.4659 175.894 11.7235 175.42 11.9091C174.947 12.0909 174.415 12.1818 173.824 12.1818ZM181.455 12L178.795 3.27273H180.205L182.091 9.95455H182.182L184.045 3.27273H185.477L187.318 9.93182H187.409L189.295 3.27273H190.705L188.045 12H186.727L184.818 5.29545H184.682L182.773 12H181.455ZM198.659 5.22727L197.455 5.56818C197.379 5.36742 197.267 5.17235 197.119 4.98295C196.975 4.78977 196.778 4.63068 196.528 4.50568C196.278 4.38068 195.958 4.31818 195.568 4.31818C195.034 4.31818 194.589 4.44129 194.233 4.6875C193.881 4.92992 193.705 5.23864 193.705 5.61364C193.705 5.94697 193.826 6.21023 194.068 6.40341C194.311 6.59659 194.689 6.75758 195.205 6.88636L196.5 7.20455C197.28 7.39394 197.862 7.68371 198.244 8.07386C198.627 8.46023 198.818 8.95833 198.818 9.56818C198.818 10.0682 198.674 10.5152 198.386 10.9091C198.102 11.303 197.705 11.6136 197.193 11.8409C196.682 12.0682 196.087 12.1818 195.409 12.1818C194.519 12.1818 193.782 11.9886 193.199 11.6023C192.616 11.2159 192.246 10.6515 192.091 9.90909L193.364 9.59091C193.485 10.0606 193.714 10.4129 194.051 10.6477C194.392 10.8826 194.837 11 195.386 11C196.011 11 196.508 10.8674 196.875 10.6023C197.246 10.3333 197.432 10.0114 197.432 9.63636C197.432 9.33333 197.326 9.07955 197.114 8.875C196.902 8.66667 196.576 8.51136 196.136 8.40909L194.682 8.06818C193.883 7.87879 193.295 7.58523 192.92 7.1875C192.549 6.78598 192.364 6.28409 192.364 5.68182C192.364 5.18939 192.502 4.75379 192.778 4.375C193.059 3.99621 193.439 3.69886 193.92 3.48295C194.405 3.26705 194.955 3.15909 195.568 3.15909C196.432 3.15909 197.11 3.34848 197.602 3.72727C198.098 4.10606 198.451 4.60606 198.659 5.22727Z" fill="#8987A1"/>
</svg>
